<svg xmlns="http://www.w3.org/2000/svg" xmlns:xlink="http://www.w3.org/1999/xlink" viewBox="0 0 475.7 84.8">
<g>
<g>
<g>
<path fill="#000" d="M74.7,25.6c1.7,0,2.9,0.5,3.8,1c2,0.9,4.2,2,7.1,3.4c0,0,4.6-3.3,4.9-3.5c1.6-1.1,3.1-0.3,3.6,0.7c1.7,3.3,4.9,10,6.6,16.2c0.2,0.7,0,1.9-1.2,2.2c-0.7,0.2-1.8,0.4-3,0.5c-1.7,0.2-1.6,1.6-1.6,2.4c0,1,0,7.9,0,10.2c0,1.4-1.1,6.1-6.5,6.1c-0.4,0-12.4,0-12.4,0c-4.7,0-8.4-3.9-8.4-8.1c0-2.8,0-22,0-24.2C67.5,28.3,71.3,25.5,74.7,25.6"/>
<path fill="#000" d="M55.1,64.8H15v4.5h47.1c0,0,1.7-3.9,1.7-8.3c0-0.2,0-30.3,0-30.3c0-2.4,1-6.4,5.9-7.5c0.1,0,0.3-0.1,0.4-0.1c13.9-3.3,28.2-0.3,36.3,3.2c1.5,0.7,1.8-0.5,1.7-1c0.2-6.8-5-14.6-14.5-15c-7.7-0.2-12,2.6-13.6,3.4c-0.1,0.1-0.3,0-0.5-0.2C78.1,12.1,75,10,71.6,9c-0.5-0.1-0.6-0.9,0-0.9c7.3-0.8,13.7,0,16.4,0.5c0.6,0.1,1.1-0.3,0.8-0.8c-0.2-0.4-0.3-0.6-0.6-1.3c-0.7-1.4-2.4-2.9-4.6-3.5c-5.7-1.6-15.5-3-24.3-3c-9.8-0.1-20.2,1.9-22.8,2.5c-0.6,0.1-1.5,0.4-1.7,0.4c-0.5,0-0.7,0.7-0.4,1c0.2,0.2,0.7,0.7,1,1c0.3,0.4,0.5,1-0.1,1.6L17.1,22.8h12.4h0.1c0.8,0,1.6,0.7,1.6,1.6c0,0.8-0.7,1.6-1.5,1.6h-0.1H13.5l-4.9,4.5h21.1h0.1c0.8,0,1.5,0.9,1.5,1.6c0,0.7-0.6,1.6-1.5,1.6h-0.1H5l-5,4.6h42.7h0.1c0.8,0,1.5,0.9,1.5,1.6c0,0.9-0.6,1.7-1.5,1.7h-0.1H0v4.5h42.6h0.1c1,0,1.5,0.9,1.5,1.7c0,0.7-0.7,1.5-1.6,1.5h-0.1H0v4.5h55.7h0.1c0.9,0,1.5,0.8,1.5,1.7c0,0.8-0.7,1.6-1.5,1.6h-0.1H15v4.5h40.1h0.8c0.8,0,1.4,0.9,1.4,1.7c0,0.8-0.7,1.6-1.4,1.6L55.1,64.8L55.1,64.8z"/>
<path fill="#000" d="M30,80.2v4.6c0,0,6,0,9.5,0c8.5-0.1,14-4.6,14-4.6H30z"/>
<path fill="#000" d="M30,72.5V77h27.3c1.3-1.3,2.9-3.6,3.3-4.5H30z"/>
<path fill="#000" d="M469.5,44.9c0-0.1,0-0.2,0-0.2c-0.2-3.5-1.3-6.6-2.9-9c-3.4-5.3-9.3-8.2-16.4-8.1c-7.1-0.1-13.1,2.8-16.4,8.1c-1.6,2.4-2.8,5.5-2.9,9c0,0.1,0,0.2,0,0.2c-1,11.6,5.8,19.7,17.4,20.6c0.7,0.1,1.4,0.1,2,0.1c0.7,0,1.3,0,2-0.1C463.7,64.6,470.4,56.6,469.5,44.9 M451,60.1c-0.3,0-0.6,0-0.9,0s-0.6,0-0.9,0c-1.7-0.2-3-0.8-4.2-1.7c-0.3-0.3-0.7-0.6-1-1c-1.8-2-2.7-5.4-3-8.1c-0.5-6.3,0.7-15.5,8.4-16.1c0.2,0,0.4,0,0.6,0h0.1h0.1c0.2,0,0.4,0,0.6,0c7.7,0.6,9,9.8,8.5,16.1c-0.2,2.7-1.1,6.1-3,8.1c-0.3,0.4-0.7,0.7-1,1C454,59.3,452.6,59.9,451,60.1"/>
<path fill="#000" d="M392.7,36.3c0-2.9,0.3-7.9,0.3-7.9l0,0h-9.5l0,0c0,0,0.3,5.1,0.3,7.9V57c0,2.9-0.3,7.8-0.3,7.8l0,0h9.4l0,0c0,0-0.3-4.9-0.3-7.8L392.7,36.3z"/>
<path fill="#000" d="M337.3,59.1c-2,0-4.6,0-6.6,0c-0.1-3.7-0.1-7.2-0.1-10.4v-0.5l0,0v-0.1h10.9V43h-10.9c0-5.5,0.1-9.2,0.1-9.2h13.6v-5.5c-9.5,0-23.2,0-23.2,0s0.2,5,0.2,7.9v20.7c0,2.6-0.2,7.1-0.2,7.9h24.1V59C345.3,59,340.5,59.1,337.3,59.1"/>
<path fill="#000" d="M179.5,59.1c-2,0-4.6,0-6.6,0c-0.1-3.7-0.1-7.2-0.1-10.4v-0.5l0,0v-0.1h10.9v-5.2h-10.9c0-5.5,0.1-9.2,0.1-9.2h13.6v-5.5c-9.5,0-23.2,0-23.2,0s0.2,5,0.2,7.9v20.8c0,2.6-0.2,7.1-0.2,7.9h24.1V59C187.4,59,182.6,59.1,179.5,59.1"/>
<path fill="#000" d="M368.3,45.2l10.5-16.8h-7.2l-0.1,0.2c-2.2,3.8-4.9,8.4-6,10.1l-0.4,0.7L359,28.3h-10.9l10.5,18.9l-10.9,17.6h7.2c4.7-8,7.1-11.6,7.1-11.6l6.5,11.6h10.8L368.3,45.2z"/>
<path fill="#000" d="M422.2,59.8c-8.4,0-13-6.2-12.7-13.8c0.2-6.6,3.2-12.3,10.5-12.8c2.8-0.2,5,0.3,8.9,1.3l-0.4-5.7c0,0-3.3-1-8-1.2c-6-0.2-11.4,0.9-15.8,4.9c-3.9,3.5-6.2,8.8-6.2,13.9c0,5.6,2.3,10.8,6.7,14.4c4.5,3.8,9.4,4.7,15.1,4.7c3.8,0,6-0.3,9.7-1.2l-0.6-5.6C428.7,59,426,59.8,422.2,59.8"/>
<path fill="#000" d="M300.6,22.9h10.5l0.3,2.4c2.4,24.3,3.8,39.5,3.8,39.5h-11l-1.1-15.1l-1-13.5l-9.3,28.5c-2.5,0-5.9,0-5.9,0s-2.9-10.1-3.5-11.6L278.1,36c0,0-0.8,9.5-1.1,13.6c-0.6,8.2-1.2,15.1-1.2,15.1h-8.2c0,0,3.4-34.1,3.6-36.2c0.3-2.1,0.7-5.8,0.7-5.8h10.8l8.9,24.5L300.6,22.9z"/>
<path fill="#000" d="M263.2,45c0-0.1,0-0.2,0-0.2c-0.2-3.5-1.3-6.6-2.9-9c-3.4-5.3-9.3-8.1-16.4-8c-7.1-0.1-13,2.7-16.4,8c-1.6,2.4-2.8,5.5-2.9,9c0,0.1,0,0.2,0,0.2c-1,11.6,5.8,19.6,17.3,20.5c0.7,0.1,1.4,0.1,2,0.1c0.7,0,1.3,0,2-0.1C257.4,64.6,264.1,56.6,263.2,45 M244.8,60.1c-0.3,0-0.6,0-0.9,0c-0.3,0-0.6,0-0.9,0c-1.7-0.2-3-0.8-4.2-1.7c-0.3-0.3-0.7-0.6-1-1c-1.8-2-2.7-5.4-3-8.1c-0.5-6.3,0.7-15.4,8.4-16c0.2,0,0.4,0,0.6,0h0.1h0.1c0.2,0,0.4,0,0.6,0c7.7,0.6,8.9,9.8,8.4,16c-0.2,2.7-1.1,6-2.9,8.1c-0.3,0.4-0.7,0.7-1,1C247.8,59.3,246.3,59.9,244.8,60.1"/>
<path fill="#000" d="M161,64.8c-0.3-0.8-2.3-5.4-3.7-9.1L145,22.9h-9.6c0,0-2.7,7.7-3.1,9l-9,25.4c-1.2,3.3-2.8,7.5-2.8,7.5h7.8c0,0,2.2-7.1,2.7-8.3l1.2-3.5h13.6l1.9,5.4c0.4,1,2,6.4,2,6.5L161,64.8L161,64.8z M134.2,46.9l4.6-13.6l0.3-0.8l4.8,14.4H134.2z"/>
<path fill="#000" d="M225.1,64.8c-2.3-3.2-3.1-4.6-4.8-7l-6.5-10.2c3.1-1.5,6.1-4.1,6.5-9.6c0.3-3.4-1.5-6.2-2.6-7.2c-1.6-1.4-3.1-2-5.3-2.2c-1.7-0.2-3-0.2-4-0.3H193c0,0,0.2,5,0.2,7.9v20.6c0,2.9-0.2,7.9-0.2,7.9h9.5c0,0-0.3-5-0.3-7.9l0.1-6.6c0,0,2.1,0,3.5,0l6,11c0.8,1.4,2,3.1,2.2,3.6H225.1z M208.3,44.4c-1.4,0.7-4.6,0.5-6.2,0.4l0.1-10.4l0.9-0.1c2.9-0.2,5,0.2,5.9,0.6c1.3,0.6,2.1,1.8,2.1,3.9C211.3,41.9,210.1,43.5,208.3,44.4"/>
<path fill="#000" d="M468.5,61.2c0-2,1.6-3.6,3.6-3.6s3.6,1.6,3.6,3.6s-1.6,3.6-3.6,3.6S468.5,63.2,468.5,61.2 M474.8,61.2c0-1.7-1.2-2.9-2.7-2.9s-2.7,1.2-2.7,2.9s1.2,2.9,2.7,2.9C473.6,64.1,474.8,62.9,474.8,61.2 M470.7,59.2h1.5c1,0,1.5,0.3,1.5,1.2c0,0.7-0.4,1-1.1,1.1l1.1,1.8h-0.8l-1.1-1.8h-0.5v1.8h-0.8v-4.1H470.7z M471.4,60.9h0.7c0.4,0,0.8-0.1,0.8-0.6s-0.4-0.6-0.8-0.6h-0.7V60.9z"/>
</g>
</g>
<path fill="#000" d="M368.6,75.8c-70.8-15.4-101,8.8-101,8.8s33-19.5,101-4.7c69.4,15.1,101-9.2,101-9.2S434.3,90.2,368.6,75.8z"/>
</g>
</svg>