<svg xmlns="http://www.w3.org/2000/svg" viewBox="0 0 150 35.474">
<path d="M379.424,8131.595a.217.217,0,0,1-.091-.183.232.232,0,0,1,.231-.237.214.214,0,0,1,.146.055,1.933,1.933,0,0,0,1.346.5c.572,0,.949-.306.949-.725V8131c0-.4-.214-.621-1.109-.809-.98-.213-1.431-.528-1.432-1.229v-.012a1.258,1.258,0,0,1,1.4-1.164,2.165,2.165,0,0,1,1.358.418.248.248,0,0,1,.1.2.232.232,0,0,1-.231.231.226.226,0,0,1-.14-.043,1.781,1.781,0,0,0-1.1-.37c-.554,0-.907.306-.906.688v.013c0,.4.22.627,1.157.826s1.388.553,1.389,1.205v.012c0,.729-.608,1.205-1.454,1.206a2.481,2.481,0,0,1-1.613-.57m6.9-3.312-1.236,0a.223.223,0,0,1-.225-.22.23.23,0,0,1,.225-.226l2.958,0a.229.229,0,0,1,.226.226.223.223,0,0,1-.225.22h-1.236l0,3.6a.243.243,0,0,1-.487,0Zm4.578,2.028,0-2.263a.24.24,0,1,1,.481,0l0,2.233a1.256,1.256,0,0,0,1.3,1.435c.785,0,1.284-.476,1.283-1.407l0-2.265a.24.24,0,1,1,.481,0l0,2.228a1.777,1.777,0,1,1-3.548.04m6.509-2.241a.242.242,0,0,1,.237-.242l1.242,0a2.124,2.124,0,0,1,2.266,2.116v.013a2.132,2.132,0,0,1-2.262,2.131l-1.242,0a.244.244,0,0,1-.238-.244Zm1.483,3.572a1.648,1.648,0,0,0,1.763-1.676v-.012a1.658,1.658,0,0,0-1.767-1.685h-1l0,3.372Zm5.145-3.608a.24.24,0,1,1,.481,0l0,3.834a.244.244,0,0,1-.243.244.242.242,0,0,1-.238-.242Zm3.367,1.926v-.013a2.173,2.173,0,1,1,4.346-.017v.013a2.173,2.173,0,1,1-4.346.017m3.846,0v-.013a1.694,1.694,0,0,0-1.681-1.757,1.673,1.673,0,0,0-1.666,1.748v.013a1.694,1.694,0,0,0,1.682,1.757,1.673,1.673,0,0,0,1.666-1.748m3.16,1.6a.216.216,0,0,1-.091-.183.232.232,0,0,1,.231-.237.214.214,0,0,1,.146.054,1.935,1.935,0,0,0,1.346.5c.572,0,.949-.306.949-.726v-.013c0-.4-.214-.62-1.109-.809-.98-.211-1.431-.527-1.432-1.228v-.012a1.259,1.259,0,0,1,1.4-1.165,2.173,2.173,0,0,1,1.358.42.246.246,0,0,1,.1.194.231.231,0,0,1-.231.231.226.226,0,0,1-.14-.042,1.775,1.775,0,0,0-1.1-.37c-.554,0-.906.306-.906.688v.013c0,.4.22.626,1.157.825s1.388.554,1.389,1.2v.013c0,.729-.607,1.205-1.453,1.206a2.488,2.488,0,0,1-1.614-.57m-91.018-9.514,21.228-.021-10.641-25.2Zm5.871-3.893L334,8106.892l4.75,11.251Zm42.991-20.433-11.912,15.9-.017-15.887-3.907,0,.025,24.274,3.907,0,0-1.883,2.577-3.441,5.332,5.316,5.526-.006-8.491-8.468,11.845-15.811Zm64.883,18.757-16.133-18.807h-.864l.025,24.275,3.907,0-.015-14.716,12.611,14.7,4.38-.006-.025-24.273-3.9,0Zm25.615-19.785-10.587,25.221,21.228-.021Zm.01,10.067,4.75,11.25-9.477.01Zm-65.156.066,3.586,8.493,4.239,0-7.836-18.556-7.8,18.571,4.238,0Zm4.75,11.251-9.477.01-4.238,0-1.633,3.889,21.228-.021-1.641-3.887Z" transform="translate(-323.398 -8096.691)"></path>
</svg>