<svg xmlns="http://www.w3.org/2000/svg" viewBox="0 0 235.968 40.476">
<g id="Group_17" data-name="Group 17" transform="translate(-0.04 0)">
<path id="Path_252" data-name="Path 252" d="M7.728-8.232V-9.968H1.162V0H3.108V-4.046H7.042V-5.782H3.108v-2.45ZM18.088,0V-1.736h-4.62V-4.158H17.4V-5.894H13.468V-8.232h4.62V-9.968H11.522V0Zm11.55,0L27.412-4.3a2.684,2.684,0,0,0,1.82-2.618A3.013,3.013,0,0,0,26-9.968H22.092V0h1.946V-3.976h1.4L27.384,0ZM27.286-6.916A1.3,1.3,0,0,1,25.872-5.6H24.038V-8.232h1.834A1.3,1.3,0,0,1,27.286-6.916ZM35.294,0V-9.968H33.348V0ZM47.418,0l-3.64-9.968H42.252L38.626,0h2.03l.6-1.764H44.8L45.388,0ZM44.282-3.4H41.8l1.26-3.626ZM63.336-5.026c0-1.5.112-2.87-1.008-3.99A3.63,3.63,0,0,0,59.7-9.968H56.1V0h3.6a3.63,3.63,0,0,0,2.632-.952C63.448-2.072,63.336-3.528,63.336-5.026Zm-1.946,0c0,1.512-.056,2.226-.42,2.674a1.737,1.737,0,0,1-1.456.616h-1.47v-6.5h1.47a1.737,1.737,0,0,1,1.456.616C61.334-7.168,61.39-6.538,61.39-5.026ZM73.99,0V-1.736H69.37V-4.158H73.3V-5.894H69.37V-8.232h4.62V-9.968H67.424V0ZM90.58-5.026c0-1.5.112-2.87-1.008-3.99a3.63,3.63,0,0,0-2.632-.952h-3.6V0h3.6a3.63,3.63,0,0,0,2.632-.952C90.692-2.072,90.58-3.528,90.58-5.026Zm-1.946,0c0,1.512-.056,2.226-.42,2.674a1.737,1.737,0,0,1-1.456.616h-1.47v-6.5h1.47a1.737,1.737,0,0,1,1.456.616C88.578-7.168,88.634-6.538,88.634-5.026ZM96.614,0V-9.968H94.668V0Zm10.864-2.94a2.791,2.791,0,0,0-.77-2.114,3.3,3.3,0,0,0-1.9-.77l-1.176-.168a1.714,1.714,0,0,1-.924-.392.962.962,0,0,1-.294-.714c0-.686.5-1.26,1.54-1.26a2.774,2.774,0,0,1,2.044.686l1.232-1.218a4.271,4.271,0,0,0-3.22-1.162c-2.156,0-3.472,1.246-3.472,3.024a2.634,2.634,0,0,0,.714,1.96,3.381,3.381,0,0,0,1.932.826l1.2.168a1.485,1.485,0,0,1,.882.35,1.11,1.11,0,0,1,.308.84c0,.8-.616,1.232-1.764,1.232a3.263,3.263,0,0,1-2.408-.84l-1.26,1.26a4.681,4.681,0,0,0,3.64,1.316C105.868.084,107.478-1.008,107.478-2.94ZM117.978,0V-1.736h-4.62V-4.158h3.934V-5.894h-3.934V-8.232h4.62V-9.968h-6.566V0Zm11.634,0V-9.968h-1.946v6.1l-3.948-6.1h-1.736V0h1.946V-6.118L127.876,0Zm-1.288-11.886-.812-.8a1.018,1.018,0,0,1-.826.406,1.4,1.4,0,0,1-.77-.252,1.859,1.859,0,0,0-1.078-.322,2.078,2.078,0,0,0-1.568.826l.784.8a1.023,1.023,0,0,1,.812-.406,1.525,1.525,0,0,1,.784.252,1.872,1.872,0,0,0,1.092.322A2.145,2.145,0,0,0,128.324-11.886Zm12.74,6.9c0-1.722.014-2.968-.994-3.976a3.6,3.6,0,0,0-2.688-1.092,3.636,3.636,0,0,0-2.7,1.092c-1.008,1.008-.98,2.254-.98,3.976s-.028,2.968.98,3.976a3.636,3.636,0,0,0,2.7,1.092,3.6,3.6,0,0,0,2.688-1.092C141.078-2.016,141.064-3.262,141.064-4.984Zm-1.946,0c0,1.918-.112,2.38-.49,2.8a1.618,1.618,0,0,1-1.246.532,1.649,1.649,0,0,1-1.26-.532c-.378-.42-.476-.882-.476-2.8s.1-2.38.476-2.8a1.649,1.649,0,0,1,1.26-.532,1.618,1.618,0,0,1,1.246.532C139.006-7.364,139.118-6.9,139.118-4.984ZM159.53,0V-9.968h-1.918l-2.59,5.39-2.6-5.39H150.5V0h1.946V-5.81l1.918,3.78h1.316l1.9-3.78V0Zm10.99,0V-1.736H165.9V-4.158h3.934V-5.894H165.9V-8.232h4.62V-9.968h-6.566V0Zm11.214,0-3.108-5.11,2.9-4.858h-2.2l-1.75,3.22-1.736-3.22h-2.212l2.9,4.858L173.432,0h2.226l1.918-3.472L179.508,0Zm5.278,0V-9.968h-1.946V0Zm11.424-3.066h-1.974a1.643,1.643,0,0,1-1.68,1.414,1.539,1.539,0,0,1-1.246-.518c-.406-.434-.49-.882-.49-2.814s.084-2.38.49-2.814a1.539,1.539,0,0,1,1.246-.518,1.643,1.643,0,0,1,1.68,1.414h1.974a3.512,3.512,0,0,0-3.668-3.15A3.653,3.653,0,0,0,192.08-8.96a2.832,2.832,0,0,0-.812,1.5,13.6,13.6,0,0,0-.168,2.478,13.6,13.6,0,0,0,.168,2.478,2.884,2.884,0,0,0,.812,1.5A3.653,3.653,0,0,0,194.768.084,3.521,3.521,0,0,0,198.436-3.066ZM209.762,0l-3.64-9.968H204.6L200.97,0H203l.6-1.764h3.542L207.732,0Zm-3.136-3.4h-2.478l1.26-3.626Zm14.1,3.4V-9.968h-1.946v6.1l-3.948-6.1h-1.736V0h1.946V-6.118L218.988,0Zm11.452-4.984c0-1.722.014-2.968-.994-3.976a3.6,3.6,0,0,0-2.688-1.092,3.636,3.636,0,0,0-2.7,1.092c-1.008,1.008-.98,2.254-.98,3.976s-.028,2.968.98,3.976a3.636,3.636,0,0,0,2.7,1.092,3.6,3.6,0,0,0,2.688-1.092C232.19-2.016,232.176-3.262,232.176-4.984Zm-1.946,0c0,1.918-.112,2.38-.49,2.8a1.618,1.618,0,0,1-1.246.532,1.649,1.649,0,0,1-1.26-.532c-.378-.42-.476-.882-.476-2.8s.1-2.38.476-2.8a1.649,1.649,0,0,1,1.26-.532,1.618,1.618,0,0,1,1.246.532C230.118-7.364,230.23-6.9,230.23-4.984Z" transform="translate(0 40.392)"/>
<path id="Path_242" data-name="Path 242" d="M13.115,13.135A7.671,7.671,0,1,1,13.14,2.271L11.061,4.35a4.766,4.766,0,1,0,0,6.731l2.054,2.054" transform="translate(0 -0.02)"/>
<path id="Path_243" data-name="Path 243" d="M91.079,13.922,97.29,7.711l6.211,6.211,2.079-2.079-6.212-6.21,2.079-2.079L99.368,1.5,97.29,3.554,95.211,1.5,93.157,3.554l2.054,2.079L89,11.844Z" transform="translate(-66.976 -1.129)"/>
<path id="Path_244" data-name="Path 244" d="M203.32,8.553l4.4,4.4,4.38-4.4v7.572h2.92V1.5l-7.3,7.3L200.4,1.5V16.125h2.92Z" transform="translate(-150.81 -1.129)"/>
<path id="Path_245" data-name="Path 245" d="M308.206,9.584h-1.361v-5.1a.024.024,0,0,1,.025-.025h4.058A2.516,2.516,0,0,1,313.081,5.8a2.555,2.555,0,0,1-2.252,3.786Zm2.574,2.945a5.486,5.486,0,0,0,4.38-8.884,5.549,5.549,0,0,0-2.475-1.782,5.271,5.271,0,0,0-1.509-.3c-.223-.025-1.312,0-1.534,0h-5.716s-.025-.025-.025,0V16.191h2.92V12.529c0-.025.025,0,.025,0h3.935" transform="translate(-228.698 -1.171)"/>
<path id="Path_246" data-name="Path 246" d="M390.179,13.922l6.211-6.211,6.211,6.211,2.079-2.079-6.211-6.211,2.054-2.079L398.469,1.5,396.39,3.554,394.311,1.5l-2.054,2.054,2.054,2.079L388.1,11.844Z" transform="translate(-292.062 -1.129)"/>
<path id="Path_247" data-name="Path 247" d="M502.42,8.577l4.38,4.38,4.4-4.38v7.572h2.92V1.5L506.8,8.825,499.5,1.5V16.149h2.92Z" transform="translate(-375.895 -1.129)"/>
<path id="Path_248" data-name="Path 248" d="M603,1.5V16.149h12.447V13.2H605.92V10.28h4.78V7.34h-4.78V4.42h9.527V1.5Z" transform="translate(-453.783 -1.129)"/>
<path id="Path_249" data-name="Path 249" d="M700.62,7.315v8.834H697.7V1.5l11.7,8.809V1.5h2.945V16.149Z" transform="translate(-525.049 -1.129)"/>
<path id="Path_250" data-name="Path 250" d="M805.976,16.149h2.92V4.42h4.751V1.5H801.2V4.42h4.776Z" transform="translate(-602.937 -1.129)"/>
<path id="Path_251" data-name="Path 251" d="M903.947,7.7A4.751,4.751,0,1,1,899.2,2.945,4.751,4.751,0,0,1,903.947,7.7M899.2,0a7.688,7.688,0,1,0,5.448,2.252A7.7,7.7,0,0,0,899.2,0" transform="translate(-670.892)"/>
</g>
</svg>