<svg xmlns="http://www.w3.org/2000/svg" viewBox="0 0 260 55.098">
<g transform="translate(151.118 546.373)">
<path d="M-111.324-527.917h10.443s-1.17-18.456-25.029-18.456c-9.723,0-25.208,8.308-25.208,27.607s14.225,27.491,25.119,27.491,21.7-2.61,25.118-18.456h-10.354s-1.53,9.633-12.784,9.633-16.3-9-16.3-18.726,5.4-18.636,15.305-18.636S-111.864-531.248-111.324-527.917Z" transform="translate(0 0)"></path>
<path d="M-7.238-545.265H3.3V-500.7H28.774v8.733H-7.238Z" transform="translate(-27.021 -0.208)"></path>
<path d="M75.58-545.265H63.426l-19.9,53.3H54.063l4.232-11.884H80.262l4.232,11.884H95.477ZM61.086-512.224l8.193-23.148h.309l7.883,23.148Z" transform="translate(-36.555 -0.208)"></path>
<path d="M148.174-519.973v-.315c7.517-2.16,8.283-7.9,8.283-10.8,0-15.531-17.488-14.18-17.488-14.18H113.917v53.3h26.874c6.482.135,16.611-2.206,17.781-14.27S148.174-519.973,148.174-519.973Zm-23.813-17.06H138.09s8.012-.586,8.012,6.865c0,6.87-8.012,6.865-8.012,6.865H124.361ZM139.4-500.122H124.361v-15.4H139.4s8.776-.585,8.776,7.519C148.174-499.716,139.4-500.122,139.4-500.122Z" transform="translate(-49.774 -0.201)"></path>
<g transform="translate(-89.061 -539.884)">
<circle cx="5.882" cy="5.882" r="5.882" transform="translate(30.367 15.236)"></circle>
<circle cx="5.882" cy="5.882" r="5.882" transform="translate(0 15.236)"></circle>
<path d="M-47.346-527.324a5.945,5.945,0,0,0,.69-.444l.042-.027a.443.443,0,0,0,.071-.058,5.868,5.868,0,0,0,2.289-4.65,5.881,5.881,0,0,0-5.882-5.881,5.882,5.882,0,0,0-5.882,5.881,5.867,5.867,0,0,0,2.278,4.642.407.407,0,0,0,.076.066l.075.047a5.917,5.917,0,0,0,.65.417,2.751,2.751,0,0,1,1.307,2.3,2.681,2.681,0,0,1-1.205,2.545c-.16.083-.316.174-.467.271l-.042.023a.432.432,0,0,0-.083.054,5.876,5.876,0,0,0-2.588,4.873A5.866,5.866,0,0,0-53.7-512.6a.336.336,0,0,0,.041.033l.021.013a5.866,5.866,0,0,0,.726.469,2.736,2.736,0,0,1,1.284,2.282,2.68,2.68,0,0,1-1.245,2.57c-.12.063-.235.133-.349.2-.04.022-.08.043-.12.063a.373.373,0,0,0-.1.076,5.875,5.875,0,0,0-2.568,4.858,5.882,5.882,0,0,0,5.882,5.882,5.882,5.882,0,0,0,5.882-5.882,5.875,5.875,0,0,0-2.584-4.871.426.426,0,0,0-.092-.063l-.082-.043c-.131-.083-.264-.162-.4-.234a2.679,2.679,0,0,1-1.23-2.56,2.732,2.732,0,0,1,1.274-2.276,5.879,5.879,0,0,0,3.116-5.19,5.874,5.874,0,0,0-2.662-4.919l-.015-.009,0,0a5.985,5.985,0,0,0-.52-.3,2.683,2.683,0,0,1-1.19-2.535A2.746,2.746,0,0,1-47.346-527.324Z" transform="translate(71.201 538.384)"></path>
</g>
</g>
</svg>