<svg xmlns="http://www.w3.org/2000/svg" viewBox="0 0 181.002 23.421">
<path d="M406.413,450.425a1.927,1.927,0,0,1-2.2,1.867l0,0h-4.936l0,0a1.926,1.926,0,0,1-2.2-1.867v-6.1h-8.246v22.036h8.246V459.8a1.924,1.924,0,0,1,2.188-1.866h4.958a1.924,1.924,0,0,1,2.188,1.866v6.57h8.245V444.33h-8.245Z" transform="translate(-388.833 -443.637)"></path>
<path d="M595.042,444.13h-4.113V466.2h8.254V444.13h-4.141Z" transform="translate(-558.954 -443.47)"></path>
<path d="M679.92,450.531h6.326c.676.078,1.686.477,1.689,2.176v13.659h8.246V452.627a1.862,1.862,0,0,1,1.684-2.1h6.166v-6.2H679.92Z" transform="translate(-634.074 -443.637)"></path>
<path d="M850.953,450.531h6.336a1.843,1.843,0,0,1,1.679,2v13.831h8.246V452.714h.005c0-1.705,1.012-2.1,1.689-2.182h6.156v-6.2H850.953Z" transform="translate(-778.169 -443.637)"></path>
<path d="M1230.133,451.759c0-4.47-3.431-7.429-8.905-7.429h-16.26v22.036h8.245V460c.028-1.067.6-1.243.942-1.25h.07a.961.961,0,0,1,.175.022l6.268,7.6h9.7l-6.828-7.618A6.724,6.724,0,0,0,1230.133,451.759Z" transform="translate(-1076.478 -443.637)"></path>
<path d="M1040.639,459.285a1.52,1.52,0,0,1,1.559-1.478v0h10.889V452.64H1042a1.393,1.393,0,0,1-1.419-1.326v-.058a1.389,1.389,0,0,1,1.381-1.323h11.779v-5.6H1032.34v22.036h21.5v-5.6H1042.19A1.519,1.519,0,0,1,1040.639,459.285Z" transform="translate(-930.906 -443.637)"></path>
<path d="M1407.338,449.145l-3.694-.568c-2.111-.284-2.7-.6-2.7-1.326,0-.82,1.187-1.326,4.254-1.326.087,0,.172,0,.259,0v-.009h8.382v-2.974h0v-2.8h-9.482c-.073,0-.142,0-.216,0-7.981,0-11.807,2.967-11.807,7.165,0,3.693,2.375,6,7.916,6.944l3.3.568c2.308.379,3,.852,3,1.7,0,.978-1.253,1.42-3.859,1.42-.167,0-.333-.005-.5-.009H1392.5v2.637h0v2.988h11.276c6.87-.046,11.449-3,11.449-7.573C1415.221,451.986,1412.682,450,1407.338,449.145Z" transform="translate(-1234.219 -440.149)"></path>
</svg>