<svg class="svg-logo" xmlns="http://www.w3.org/2000/svg" viewBox="0 0 136 39.031"> <g transform="translate(-46.259 -271.84)"> <path class="svg-logo-text" d="M46.259,271.942h5.582v33.387H62.9v5.583H46.259Z" transform="translate(0 -0.041)"></path> <path class="svg-logo-text" d="M84.965,271.942h5.583v38.97H84.965Z" transform="translate(-15.555 -0.041)"></path> <path class="svg-logo-text" d="M133.109,327.762v5.583H107.933v-5.583Z" transform="translate(-24.786 -22.474)"></path> <path class="svg-logo-text" d="M107.933,271.942H113.3l7.17,20.634h.11l7.115-20.634h5.418v28.984h-5.582V287.212h-.109l-4.531,13.728-4.772.008-4.489-13.736h-.11v13.714h-5.582Z" transform="translate(-24.786 -0.041)"></path> <g transform="translate(116.478 271.84)"> <path class="svg-logo-text" d="M163.659,271.84h16.665V277.1H169.25V288.56H178.9v5.262H169.25v11.457h11.074v5.592H163.659Z" transform="translate(-163.659 -271.84)"></path> <path class="svg-logo-text" d="M202.152,271.84h8.99q9.868,0,9.868,11.458a14.485,14.485,0,0,1-1.069,5.838,8.263,8.263,0,0,1-3.755,3.919l6.03,17.816H216.3l-5.208-16.665h-3.344v16.665h-5.591Zm5.591,17.432h3.18a5.632,5.632,0,0,0,2.357-.411,3.029,3.029,0,0,0,1.343-1.179,5.021,5.021,0,0,0,.63-1.891,20.69,20.69,0,0,0,0-5.208,4.7,4.7,0,0,0-.685-1.919,3.112,3.112,0,0,0-1.453-1.179,6.6,6.6,0,0,0-2.467-.383h-2.9Z" transform="translate(-179.129 -271.84)"></path> <path class="svg-logo-text" d="M245.777,271.84h16.665V277.1H251.368V288.56h9.648v5.262h-9.648v11.457h11.074v5.592H245.777Z" transform="translate(-196.661 -271.84)"></path> </g> </g> </svg>