<svg xmlns="http://www.w3.org/2000/svg" viewBox="-1182 20 244.478 65">
<g transform="translate(-1182 20)" >
<g>
<path d="M34,28.8V3.757L18.3,39.3H16.954L1.349,3.757V39.3H0V0H5.491L19.94,32.559,34.2,0H39.59V39.4H33.907V28.8Z" ></path>
</g>
<g transform="translate(49.994)" >
<path d="M73.959,24.852H59.51L54.019,39.3H51.9L68.179,0h1.156L86,39.3H79.835c-2.119-5.105-2.986-7.225-2.986-7.225ZM73.477,23.6,66.542,7.128,59.8,23.6Z" transform="translate(-51.9)" ></path>
</g>
<g transform="translate(89.103 0)" >
<path d="M123.9,33.618a16.546,16.546,0,0,1-12.811,5.78A18.073,18.073,0,0,1,97.7,34.2c-3.468-3.468-5.2-8.091-5.2-13.775a23.712,23.712,0,0,1,2.408-10.6,15.87,15.87,0,0,1,6.743-7.417A19.361,19.361,0,0,1,111.091,0,17.361,17.361,0,0,1,123.9,5.491v.193l-1.156,1.06a8.213,8.213,0,0,0-2.119-2.312,13.806,13.806,0,0,0-8.766-2.986,11.433,11.433,0,0,0-9.536,4.816c-2.312,3.179-3.468,7.8-3.468,13.775,0,5.683,1.252,10.018,3.853,13.1a12.228,12.228,0,0,0,9.536,4.527,15.163,15.163,0,0,0,6.261-1.445,10.356,10.356,0,0,0,4.335-3.853Z" transform="translate(-92.5 0)" ></path>
</g>
<g transform="translate(125.996)" >
<path d="M152.859,24.852H138.41L132.919,39.3H130.8L147.079,0h1.156L164.9,39.3h-6.165c-2.119-5.105-2.986-7.225-2.986-7.225Zm-.482-1.252L145.538,7.128,138.8,23.6Z" transform="translate(-130.8)" ></path>
</g>
<g transform="translate(170.692)" >
<path d="M211.2,28.8V3.757L195.5,39.3h-1.349l-15.6-35.545V39.3H177.2V0h5.491L197.14,32.559,211.492,0h5.394V39.4H211.2V28.8Z" transform="translate(-177.2)" ></path>
</g>
<g transform="translate(221.552)" >
<path d="M240.789,37.953h12.041V39.3H230V0h22.926V1.349H235.683V18.013H247.05v1.349H235.683V37.953Z" transform="translate(-230)" ></path>
</g>
<g transform="translate(80.818 54.714)" >
<g>
<path d="M92.088,65.373a3.435,3.435,0,0,1-1.06.963,5,5,0,0,1-2.408.674,4.841,4.841,0,0,1-2.312-.578A4.291,4.291,0,0,1,84.574,64.7,4.887,4.887,0,0,1,83.9,62a5.43,5.43,0,0,1,1.349-3.757A4.372,4.372,0,0,1,88.62,56.8a3.635,3.635,0,0,1,2.89,1.156,3.566,3.566,0,0,1,.963,2.5h-6.55c0,.482-.1.771-.1,1.06a8.245,8.245,0,0,0,.771,3.853,2.509,2.509,0,0,0,2.312,1.252,3.123,3.123,0,0,0,2.7-1.349Zm-6.165-5.587h5.105a2.615,2.615,0,0,0-2.5-2.6C86.982,57.185,86.212,58.052,85.923,59.786Z" transform="translate(-83.9 -56.8)" ></path>
</g>
</g>
<g transform="translate(94.112 54.447)" >
<g>
<path d="M97.7,65.556Zm5.683-.771a2.777,2.777,0,0,1-1.156,1.83,2.909,2.909,0,0,1-2.216.385,3.327,3.327,0,0,1-2.119-1.541l.385-.289a2.327,2.327,0,0,0,1.734,1.252,1.516,1.516,0,0,0,1.349-.289,1.831,1.831,0,0,0,.674-1.06,2.119,2.119,0,0,0-.193-1.349A5.083,5.083,0,0,0,100.2,62.28a5.949,5.949,0,0,1-1.734-1.83,2.572,2.572,0,0,1-.289-1.734,2.85,2.85,0,0,1,1.06-1.638,2.188,2.188,0,0,1,2.023-.482A2.59,2.59,0,0,1,103,57.849l-.385.289a2.018,2.018,0,0,0-1.445-1.06,1.494,1.494,0,0,0-1.156.193,1.447,1.447,0,0,0-.674.867,1.332,1.332,0,0,0,.289,1.156,5.623,5.623,0,0,0,1.541,1.349,5.075,5.075,0,0,1,2.023,2.216A4.673,4.673,0,0,1,103.383,64.785Z" transform="translate(-97.7 -56.523)" ></path>
</g>
</g>
<g transform="translate(104.996 51.92)" >
<g>
<path d="M110.445,56.886V53.9h1.638v2.986h2.89v.578h-2.89v5.78a8.89,8.89,0,0,0,.1,1.83,1.324,1.324,0,0,0,.482.771,1.094,1.094,0,0,0,.771.289,1.619,1.619,0,0,0,1.445-.963l.385.193a2.451,2.451,0,0,1-1.06,1.156,2.718,2.718,0,0,1-1.445.385,2.366,2.366,0,0,1-1.445-.482,1.917,1.917,0,0,1-.771-1.156,12.067,12.067,0,0,1-.193-2.312V57.56H109v-.674Z" transform="translate(-109 -53.9)" ></path>
</g>
</g>
<g transform="translate(116.556 62.035)" >
<g>
<path d="M121.385,64.785a1.65,1.65,0,0,1,2.119,0,1.316,1.316,0,0,1,.385,1.06,1.447,1.447,0,1,1-2.5-1.06Z" transform="translate(-121 -64.4)" ></path>
</g>
</g>
<g transform="translate(127.73 51.92)" >
<path d="M135.3,66.326V53.9h-2.7v.289h1.156V66.326Z" transform="translate(-132.6 -53.9)" ></path>
</g>
<g transform="translate(134.184 51.92)" >
<path d="M147.2,59.583a8.7,8.7,0,0,0-.385-2.7,4.469,4.469,0,0,0-1.349-2.119,3.522,3.522,0,0,0-2.408-.867,3.705,3.705,0,0,0-2.793,1.156,3.569,3.569,0,0,0-.963,2.7,3.953,3.953,0,0,0,.963,2.793,3.556,3.556,0,0,0,2.7,1.06,3.077,3.077,0,0,0,1.349-.289,5.558,5.558,0,0,0,.963-.771l.289-.289v.482a7.3,7.3,0,0,1-.771,3.757,2.363,2.363,0,0,1-2.216,1.252c-.578,0-1.252,0-1.541-.385h0l-.482.482h0a3.527,3.527,0,0,0,1.734.385A4.232,4.232,0,0,0,145.85,64.3,7.412,7.412,0,0,0,147.2,59.583Zm-2.312.963a2.321,2.321,0,0,1-1.734.674,3.136,3.136,0,0,1-1.349-.385,3.011,3.011,0,0,1-.867-1.06,4.667,4.667,0,0,1-.289-1.734,5.493,5.493,0,0,1,.674-2.7,1.945,1.945,0,0,1,1.734-.867,2.3,2.3,0,0,1,1.349.482,3.266,3.266,0,0,1,.867,1.349h0a5.454,5.454,0,0,1,.289,1.734A3.137,3.137,0,0,1,144.887,60.547Z" transform="translate(-139.3 -53.9)" ></path>
</g>
<g transform="translate(145.261 52.017)" >
<path d="M159.469,61.8h-2.6V54h-.482L150.8,61.706v.482h4.431v4.238h1.638V62.188h2.6Zm-4.238,0h-4.142l4.142-5.78Z" transform="translate(-150.8 -54)" ></path>
</g>
<g transform="translate(157.206 51.92)" >
<path d="M170.617,63.051a3.052,3.052,0,0,0-.867-2.216,3.552,3.552,0,0,0-1.349-.867l-.482-.1.385-.193a2.939,2.939,0,0,0,1.252-.963,3.041,3.041,0,0,0,.674-1.83,2.6,2.6,0,0,0-1.06-2.216,3.125,3.125,0,0,0-2.216-.771,3.281,3.281,0,0,0-2.312.867,2.918,2.918,0,0,0-.963,2.119,2.543,2.543,0,0,0,.674,1.83,3.413,3.413,0,0,0,1.156.963l.385.193-.385.1a3.771,3.771,0,0,0-1.541.963,3.109,3.109,0,0,0-.771,2.023,2.931,2.931,0,0,0,1.06,2.312,3.566,3.566,0,0,0,2.5.963,3.773,3.773,0,0,0,2.5-.867A2.277,2.277,0,0,0,170.617,63.051Zm-5.105-4.142a4.447,4.447,0,0,1-.482-2.216,2.608,2.608,0,0,1,.578-1.83,1.874,1.874,0,0,1,2.793.1,2.722,2.722,0,0,1,.482,1.927,4.048,4.048,0,0,1-.482,2.119,1.688,1.688,0,0,1-1.541.674A1.454,1.454,0,0,1,165.512,58.909Zm3.082,6.454a2.266,2.266,0,0,1-1.638.578,1.776,1.776,0,0,1-1.252-.385,1.629,1.629,0,0,1-.674-.963,6.286,6.286,0,0,1-.193-1.638,3.663,3.663,0,0,1,.578-2.119,1.927,1.927,0,0,1,1.638-.771,2.266,2.266,0,0,1,1.638.578,3.291,3.291,0,0,1,.674,2.312A3.117,3.117,0,0,1,168.594,65.363Z" transform="translate(-163.2 -53.9)" ></path>
</g>
</g>
</svg>