<svg xmlns="http://www.w3.org/2000/svg" viewBox="0 0 92 22">
<g transform="translate(0.001 0.05)">
<path d="M11.818,15.312c0-1.418-1.733-1.733-3.939-1.891C3.309,13.107.316,11.531.316,6.8c-.158-9.139,16.229-9.139,16.072,0h-5.2c0-2.836-5.672-2.521-5.83,0C5.2,8.38,6.776,8.695,8.666,9.01c4.254.473,8.351,1.1,8.351,6.3C17.017,24.136-.157,24.294,0,15H5.2C5.2,17.676,11.818,17.834,11.818,15.312Z" transform="translate(0 0)"></path>
<path d="M19.657,17.017h7.721V21.9H14.3V0h5.357Z" transform="translate(8.232 0.029)"></path>
<path d="M46.7,4.884H41.5V0H57.256V4.884H46.7Z" transform="translate(23.499 -0.05)"></path>
<path d="M25.1,10.872c0,14.653,21.586,14.653,21.586,0C46.686-3.624,25.1-3.624,25.1,10.872Zm10.714,6.145c-3.309,0-5.357-2.679-5.357-5.987s2.048-5.987,5.357-5.987,5.357,2.679,5.357,5.987C41.172,14.5,39.123,17.017,35.814,17.017Z" transform="translate(14.449 0.029)"></path>
<path d="M50.157,4.3V19.426H44.8V4.3Z" transform="translate(25.789 2.504)"></path>
<path d="M972.31,48.438a3,3,0,1,0,3,3A3,3,0,0,0,972.31,48.438Zm0,5.174a2.174,2.174,0,1,1,2.174-2.174A2.177,2.177,0,0,1,972.31,53.612Zm1.09-2.565a.975.975,0,0,0-1.109-.982h-1.014V52.81h.581v-.765h.432l.08,0,.559.767h.72l-.682-.934A.934.934,0,0,0,973.4,51.048Zm-1.109.417h-.432v-.817h.432c.528,0,.528.3.528.4S972.819,51.464,972.291,51.464Z" transform="translate(-883.311 -48.488)"></path>
</g>
</svg>